<svg xmlns="http://www.w3.org/2000/svg" viewBox="0 0 400 300" width="400" height="300">
<defs><linearGradient id="g" x1="0" y1="0" x2="1" y2="1"><stop offset="0" stop-color="#00c6ff"/><stop offset="1" stop-color="#0072ff"/></linearGradient></defs>
<rect width="400" height="300" fill="url(#g)"/>
<circle cx="340" cy="50" r="70" fill="#fff" opacity=".08"/><circle cx="50" cy="270" r="90" fill="#fff" opacity=".08"/>
<g transform="translate(200 80)" fill="#fff" opacity=".9"><path d="M-34 -14h68a18 18 0 0 1 18 18v10a14 14 0 0 1-24 10l-8-8h-36l-8 8a14 14 0 0 1-24-10v-10a18 18 0 0 1 18-18z"/><path d="M-26 -2v14M-33 5h14" stroke="#00c6ff" stroke-width="4" stroke-linecap="round"/><circle cx="20" cy="2" r="4" fill="#00c6ff"/><circle cx="30" cy="9" r="4" fill="#00c6ff"/></g>
<text x="200" y="175" text-anchor="middle" font-family="Arial, Helvetica, sans-serif" font-weight="800" font-size="34" fill="#fff">Neon Samurai</text>
<text x="200" y="215" text-anchor="middle" font-family="Arial, Helvetica, sans-serif" font-weight="800" font-size="34" fill="#fff">2077</text>
<text x="200" y="260" text-anchor="middle" font-family="Arial, Helvetica, sans-serif" font-size="16" letter-spacing="4" fill="#fff" opacity=".85">ACCIÓN</text>
</svg>